PathFileType	4	(X/Y/Z)	c:/Users/goper/Files/vsCode/490R/osim_files/C06/C06_Slow_04.trc
DataRate	CameraRate	NumFrames	NumMarkers	Units                	OrigDataRate	OrigDataStartFrame	OrigNumFrames
250.00	250.00	11	36	mm	250.0	1647	3292
                Frame#	Time	LPSIS			LASIS			LTH1			LTH2			LTH3			LTH4			LLFE			LMFE			LSH1			LSH2			LSH3			LSH4			LLMAL			LMMAL			LCAL			LMTP5			LTOE			LMTP1			RPSIS			RASIS			RTH1			RTH2			RTH3			RTH4			RLFE			RMFE			RSH1			RSH2			RSH3			RSH4			RLMAL			RMMAL			RCAL			RMTP1			RTOE			RMTP5		
		X1	Y1	Z1	X2	Y2	Z2	X3	Y3	Z3	X4	Y4	Z4	X5	Y5	Z5	X6	Y6	Z6	X7	Y7	Z7	X8	Y8	Z8	X9	Y9	Z9	X10	Y10	Z10	X11	Y11	Z11	X12	Y12	Z12	X13	Y13	Z13	X14	Y14	Z14	X15	Y15	Z15	X16	Y16	Z16	X17	Y17	Z17	X18	Y18	Z18	X19	Y19	Z19	X20	Y20	Z20	X21	Y21	Z21	X22	Y22	Z22	X23	Y23	Z23	X24	Y24	Z24	X25	Y25	Z25	X26	Y26	Z26	X27	Y27	Z27	X28	Y28	Z28	X29	Y29	Z29	X30	Y30	Z30	X31	Y31	Z31	X32	Y32	Z32	X33	Y33	Z33	X34	Y34	Z34	X35	Y35	Z35	X36	Y36	Z36

1647	6.58400	1595.54700	976.23499	268.32440	1412.84094	964.16974	350.72205	1425.96448	757.41522	427.76703	1396.79626	703.50885	423.87393	1360.66699	786.93433	401.10254	1339.86865	728.76404	400.72104	1279.63745	483.04413	356.88345	1299.10242	464.34015	240.04385	1315.53333	360.79953	381.26630	1301.35620	318.70627	375.04590	1256.27930	377.63049	368.51874	1252.14075	332.41919	364.11035	1260.95349	90.33789	323.26910	1260.92896	114.01688	245.88672	1323.68542	70.77163	277.29645	1145.09229	39.96149	334.80328	1099.90100	72.24762	266.75439	1129.67334	50.75437	223.51654	1598.50061	976.39105	199.42137	1421.33362	944.83600	108.65761	1555.79761	760.08044	50.46955	1559.01965	697.56274	57.16783	1480.30652	749.94080	56.39314	1494.28247	688.66077	61.66576	1637.59668	447.64691	99.79268	1600.28430	443.63828	202.28149	1733.80383	425.98495	92.58847	1761.53369	386.02359	90.84310	0.00000	0.00000	0.00000	0.00000	0.00000	0.00000	1911.86584	181.48373	139.86890	1880.97656	193.91017	214.54172	1981.91736	202.63182	184.55016	0.00000	0.00000	0.00000	0.00000	0.00000	0.00000	1872.86816	52.24569	119.93569
1648	6.58800	1589.87646	976.88190	268.23306	1407.35046	965.12793	351.10516	1420.19446	758.50165	428.48325	1391.01306	704.77283	424.44943	1355.19043	788.22113	401.21130	1334.13708	730.14716	400.66748	1273.87390	482.18552	356.68106	1294.25671	465.19931	240.13652	1311.72095	360.55295	381.94797	1300.25366	319.97870	376.28351	1253.30725	377.89795	368.79459	1248.98938	332.12930	364.29468	1261.39294	90.77955	323.58542	1259.75305	113.68736	246.21194	1323.54663	70.88573	277.33023	1145.08032	39.39324	335.14896	1099.52734	71.08555	266.80838	1128.94409	50.25111	223.63937	1592.66748	976.77222	199.18185	1415.28638	945.04260	109.49286	1548.62708	759.42798	50.85402	1551.70325	697.18286	57.57658	1473.23267	749.98169	57.17378	1486.94348	688.70770	62.27272	1629.57080	446.59302	99.31918	1591.44250	442.39453	201.45341	1725.17236	425.98868	91.76399	1753.95764	386.95328	90.21082	0.00000	0.00000	0.00000	0.00000	0.00000	0.00000	1905.93420	184.21843	139.07565	1875.26709	196.05385	213.75076	1975.33679	207.66167	183.95198	0.00000	0.00000	0.00000	0.00000	0.00000	0.00000	1871.84595	53.54189	119.94382
1649	6.59200	1584.27600	977.57062	268.07645	1400.71899	965.07660	350.78604	1414.48853	759.58862	429.17404	1385.31494	705.97546	425.02692	1349.91101	789.51361	401.44659	1328.69690	731.67572	400.74936	1268.82129	481.92453	356.76022	1289.33716	465.69763	240.38553	1308.34436	360.88260	382.51505	1295.47766	319.25436	376.01556	1249.84827	377.64795	369.09604	1246.05957	331.86792	364.44937	1260.71313	90.97530	323.38235	1259.06775	113.74303	246.32248	1323.42236	70.97453	277.37817	1144.87036	38.86179	335.43579	1099.22632	69.91805	266.84238	1128.64563	49.72914	223.64603	1586.87122	977.07404	198.94138	1409.31775	945.39044	110.45523	1541.91211	759.36066	51.20288	1544.32544	696.78943	57.86871	1466.27246	750.19543	57.82315	1479.56213	688.77448	62.89733	1621.15112	445.95523	98.56516	1582.43384	441.28561	200.45386	1716.40906	426.03925	90.80137	1745.99377	387.68646	89.49343	0.00000	0.00000	0.00000	0.00000	0.00000	0.00000	1899.71545	186.91298	138.29710	1870.65955	199.67091	213.51178	1968.37354	212.79224	183.31050	0.00000	0.00000	0.00000	0.00000	0.00000	0.00000	1870.49866	54.90707	119.96080
1650	6.59600	1578.66418	978.27203	267.92407	1396.61462	967.45593	352.42493	1408.88904	760.68512	429.87039	1379.59448	707.13367	425.64594	1344.65369	790.92719	401.67514	1323.28882	733.01367	400.74133	1265.09656	482.68320	356.97229	1284.61072	466.28082	240.63457	1305.18591	361.28952	383.15240	1294.58643	320.53406	377.26187	1246.65112	377.54889	369.38208	1243.28308	331.83871	364.87537	1260.34082	90.97553	323.37045	1258.45264	113.78529	246.46854	1323.29163	71.03365	277.43228	1144.70251	38.44977	335.71631	1098.99219	69.35033	267.29852	1128.53198	49.20691	223.82370	1581.04626	977.29633	198.57735	1403.26782	945.78168	111.27252	1534.89819	759.04572	51.51624	1536.91711	696.43872	58.11526	1459.37354	750.43567	58.43306	1472.18237	688.86713	63.39991	1612.40161	445.49933	97.63280	1572.30029	439.18762	199.25638	1707.48376	425.97781	89.84690	1737.93079	388.38388	88.82214	0.00000	0.00000	0.00000	0.00000	0.00000	0.00000	1893.30518	189.61000	137.56143	1863.22729	200.40076	212.14711	1961.08777	217.98372	182.65494	0.00000	0.00000	0.00000	1817.90125	48.49871	186.78870	1869.05750	56.53211	119.89600
1651	6.60000	1573.17212	978.97803	267.70267	1391.35461	968.59668	353.08951	1403.38855	761.77478	430.54517	1374.16919	708.28882	426.28970	1339.38220	792.14709	401.84601	1317.05408	733.27411	400.23090	1261.26465	482.68771	357.16934	1280.03918	466.66135	240.95790	1302.04858	361.54883	383.68896	1289.90491	319.69705	377.03629	1243.42395	377.31168	369.64642	1240.55139	331.66885	365.10931	1260.19214	90.79994	323.52695	1257.87805	113.83208	246.56754	1323.62756	71.03719	277.78275	1144.58997	38.02592	335.97278	1098.80872	68.39412	267.33673	1128.50964	48.79074	224.03136	1575.48328	977.75983	198.35744	1397.37891	946.10242	112.19469	1528.03601	758.78674	51.69513	1529.65161	696.15857	58.23760	1452.37598	750.62939	59.03646	1464.86157	689.06940	63.80799	1603.66565	444.95758	96.69293	1564.03467	438.96954	198.54129	1698.40564	425.92001	88.87128	1729.72937	389.13721	88.08408	0.00000	0.00000	0.00000	0.00000	0.00000	0.00000	1886.70996	192.30518	136.86806	1858.19800	204.03490	211.93427	1953.51892	223.26733	182.01479	0.00000	0.00000	0.00000	0.00000	0.00000	0.00000	1867.38074	58.32732	119.85592
1652	6.60400	1567.53613	979.61469	267.54596	1384.62305	968.60382	352.85687	1397.90930	762.77899	431.17453	1366.23560	707.18341	426.53479	1334.16736	793.21136	402.11597	1312.74426	735.24805	400.95120	1259.37842	483.88266	358.18503	1275.61023	467.02545	241.32683	1300.68140	363.44470	385.18097	1289.24194	320.99634	378.21637	1240.50305	377.23938	369.97852	1238.00818	331.60864	365.43311	1259.80957	90.82369	323.50354	1257.88062	114.27527	246.41121	1323.53955	71.13931	277.76620	1144.25220	37.67356	336.17770	1098.68933	67.70757	267.60947	1128.41003	48.45060	224.13936	1569.85291	977.99377	197.97664	1391.73267	946.56378	113.18675	1521.05322	758.50208	51.90764	1522.33618	695.90112	58.27485	1445.52747	750.93652	59.46831	1457.56152	689.28772	64.17219	1594.78821	444.34555	95.81131	1554.61560	437.75604	197.64201	1689.31824	426.05066	87.94102	1721.30347	389.81992	87.33490	0.00000	0.00000	0.00000	0.00000	0.00000	0.00000	1879.93726	194.99425	136.21634	1851.62708	206.29985	211.11969	1945.54370	228.53699	181.32561	0.00000	0.00000	0.00000	0.00000	0.00000	0.00000	1865.60950	60.44132	119.79445
1653	6.60800	1562.05933	980.32947	267.32361	1380.71753	971.01990	354.57169	1392.54993	763.70508	431.80667	1360.86475	707.98596	427.01083	1329.05029	794.19513	402.58560	1307.64709	736.16937	401.25690	1254.64990	482.58783	358.25912	1271.63574	467.42126	241.63527	1297.39880	363.27573	385.30548	1286.81140	321.26553	378.63513	1235.65649	375.52679	369.80441	1235.40247	331.43463	365.65598	1258.90808	90.29660	323.26889	1256.78784	113.95566	246.67902	1322.97156	71.17487	277.51083	1144.47485	37.35170	336.52142	1098.44934	66.95827	267.71701	1128.21252	48.12779	224.10400	1564.36194	978.41943	197.72321	1385.88245	947.04156	113.98359	1514.21680	758.27148	52.00363	1515.03577	695.63959	58.29638	1438.76074	751.39935	59.81824	1450.19812	689.48584	64.51604	1585.68103	443.72763	95.01679	1545.04834	436.52765	196.69873	1680.05872	426.13867	86.98769	1712.69226	390.45691	86.59727	0.00000	0.00000	0.00000	0.00000	0.00000	0.00000	1872.99353	197.67291	135.60571	1843.38171	206.96854	209.72639	1937.10352	233.64543	180.58372	0.00000	0.00000	0.00000	1863.48730	62.68099	119.73839	1863.56360	62.68640	119.73476
1654	6.61200	1556.59924	981.03149	267.11090	1375.41980	972.15582	355.24643	1387.40442	764.62561	432.46716	1358.76880	711.10187	428.09329	1323.91418	794.99109	403.03586	1302.73071	736.92578	401.77640	1251.37585	482.42078	358.66971	1267.86292	467.60855	241.98473	1294.48145	363.39032	385.55484	1282.19922	320.08328	378.22998	1232.48291	375.21484	369.94568	1233.00781	331.15689	365.89713	1258.63403	90.29951	323.23810	1256.99707	114.40247	246.47119	1322.87012	71.21382	277.49893	1144.36157	37.06690	336.70624	1098.26843	66.21705	267.61292	1128.01733	47.72609	223.96255	1558.84473	978.66583	197.38094	1380.19678	947.50110	114.80569	1507.44885	758.07849	52.06466	1507.81885	695.45782	58.23623	1432.25146	752.01422	59.97192	1442.96704	689.78021	64.70962	1576.72095	443.10165	94.28803	1535.43970	435.42535	195.88843	1670.30029	426.08948	86.16949	1703.94360	391.13763	85.88018	0.00000	0.00000	0.00000	0.00000	0.00000	0.00000	1865.88611	200.33691	135.03552	1837.83777	210.76610	209.58430	1928.32410	238.91711	179.83124	0.00000	0.00000	0.00000	0.00000	0.00000	0.00000	1861.23352	65.06548	119.65231
1655	6.61600	1551.15344	981.67224	266.94843	1370.04480	973.33716	355.92874	1382.30078	765.40918	433.03314	1353.25122	712.60193	429.07547	1318.83447	795.54437	403.55106	1298.05310	737.57477	402.45645	1249.39294	483.33240	359.31668	1264.44507	467.70755	242.45462	1290.85425	362.45557	385.48178	1282.10974	321.45023	379.27563	1229.73193	374.98251	370.15912	1230.68359	330.83951	366.06763	1257.83301	90.21845	323.03787	1256.02832	114.05372	246.73291	1322.79175	71.24929	277.49719	1144.26367	36.82141	336.83237	1098.10815	65.60790	267.45969	1127.78564	47.14826	223.82402	1553.51221	979.11743	197.11334	1374.64270	948.00189	115.76569	1500.68481	757.89337	52.09581	1500.58154	695.28918	58.16708	1426.22131	751.93915	60.51748	1435.83923	690.19305	64.77184	1567.28833	442.52582	93.56191	1525.55493	434.26361	194.94896	1661.01050	426.01193	85.21299	1695.05615	391.80460	85.19208	0.00000	0.00000	0.00000	0.00000	0.00000	0.00000	1858.62183	202.98195	134.50519	1828.86194	211.06630	208.10533	1919.14087	244.10193	179.05313	0.00000	0.00000	0.00000	1809.16711	49.63627	185.22389	1858.68726	67.66370	119.50097
1656	6.62000	1545.79041	982.33679	266.79166	1364.97339	974.46490	356.77402	1377.45312	766.14996	433.65717	1348.83435	713.32507	429.84146	1313.84119	795.87201	404.15625	1293.28491	737.75543	403.00256	1246.38623	483.07062	359.73282	1261.48022	467.79327	242.82677	1288.41418	362.57999	385.73044	1279.90698	321.41806	379.44135	1227.81299	375.00546	370.58197	1228.48840	330.53351	366.32465	1257.63550	90.24910	322.95209	1255.30518	113.59047	246.54373	1322.72327	71.27520	277.49326	1144.70166	37.06185	337.09833	1098.06677	65.08731	267.43530	1127.72205	46.86170	223.74593	1548.11682	979.46063	196.82361	1369.18994	948.67444	116.44231	1494.05579	757.77863	52.07042	1493.49121	695.17383	58.06477	1418.96204	751.72528	61.55801	1428.65979	690.63599	64.86864	1556.93323	442.08911	92.79266	1515.74487	433.13928	194.26346	1651.57678	426.29346	84.65942	1685.05200	392.21027	84.56950	0.00000	0.00000	0.00000	0.00000	0.00000	0.00000	1851.20740	205.60374	134.01408	1823.00830	214.84818	208.10480	1909.40344	249.09921	178.23125	0.00000	0.00000	0.00000	1806.64209	50.23970	184.89438	1855.93701	70.48823	119.26221
1657	6.62400	1540.49280	982.98956	266.64072	1359.74609	975.59784	357.47583	1372.74768	766.73419	434.23178	1344.75330	713.85577	430.61499	1308.93640	796.00330	404.83337	1288.80444	737.70886	403.67108	1242.41418	481.52243	359.95395	1258.35486	467.83466	243.19438	1286.19226	362.53549	385.95007	1277.94250	321.32141	379.58716	1225.58801	373.77942	370.06976	1226.45911	330.11801	366.56180	1258.27112	90.95001	322.98407	1255.27063	114.07999	246.68106	1322.69336	71.34138	277.50180	1144.12891	36.40474	337.06027	1097.91101	64.57666	267.39984	1127.78455	46.74489	223.79480	1542.87598	979.83722	196.59558	1363.70581	949.35876	117.11876	1487.48804	757.63403	52.02943	1486.37732	695.02216	57.95244	1410.84363	751.65723	62.75149	1421.55530	691.07416	64.99866	1547.07678	441.92224	92.03508	1505.88062	432.15860	193.46681	1641.43982	425.19333	84.37859	1676.13135	392.89380	83.98743	0.00000	0.00000	0.00000	0.00000	0.00000	0.00000	1843.65002	208.19800	133.56163	1813.46558	214.92282	206.65030	1899.24719	254.08865	177.39629	0.00000	0.00000	0.00000	0.00000	0.00000	0.00000	1852.83020	73.34052	119.00836
